<svg id="a88ae9cc-e23a-4440-abf9-ed55aa8352f6" data-name="Layer 1" xmlns="http://www.w3.org/2000/svg" viewBox="0 0 459.85 459.85"><defs><style>.b17bc94a-d3ff-4ce9-a722-998305d1cac6{fill:#1abfab;}.ec58a56a-f5fe-4668-8ebd-8998339a559a{fill:#056053;}.aba77fdc-5cf4-4385-aa45-abe302109a0e{fill:#9ae2d7;}</style></defs><title>logos</title><rect class="b17bc94a-d3ff-4ce9-a722-998305d1cac6" width="459.85" height="459.85" rx="14"/><rect class="ec58a56a-f5fe-4668-8ebd-8998339a559a" x="16" y="16" width="427.85" height="427.85" rx="10"/><path class="aba77fdc-5cf4-4385-aa45-abe302109a0e" d="M61.92,318.12l22.8-51.6c19.8,11.7,46.2,19.2,69.31,19.2,20.1,0,27.29-4.2,27.29-11.4,0-26.4-116.1-5.1-116.1-83.4,0-39,32.7-70.8,97.81-70.8,28.2,0,57.3,6,79.2,18.3l-21.3,51.3c-20.7-10.5-40.2-15.6-58.5-15.6-20.7,0-27.31,6-27.31,13.2,0,25.2,116.11,4.2,116.11,81.6,0,38.4-32.7,70.8-97.8,70.8C118.32,339.72,82.92,331,61.92,318.12Z"/><path class="aba77fdc-5cf4-4385-aa45-abe302109a0e" d="M397.92,219.93l-73.4,115h-31.2l-26.8-115h32.6l17,76.39,49-76.39Z"/></svg>